# xmcd
#
# Track frame offsets: 
#        150
#        20980
#        43547
#        65555
#        84355
#        104950
#        119305
#        134087
#        149445
#        171835
#
# Disc length: 2578 seconds
#
# Revision: 2
# Processed by: cddbd v1.5.1PL2 Copyright (c) Steve Scherf et al.
# Submitted via: ExactAudioCopy v0.95b4
#
DISCID=9b0a100a
DTITLE=Mary Chapin Carpenter - Hometown Girl
DYEAR=1987
DGENRE=Country
TTITLE0=A Lot Like Me
TTITLE1=Other Streets And Other Towns
TTITLE2=Hometown Girl
TTITLE3=Downtown Train
TTITLE4=Family Hands
TTITLE5=A Road Is Just A Road
TTITLE6=Come On Home
TTITLE7=Waltz
TTITLE8=Just Because
TTITLE9=Heroes And Heroines
EXTD=
EXTT0=
EXTT1=
EXTT2=
EXTT3=
EXTT4=
EXTT5=
EXTT6=
EXTT7=
EXTT8=
EXTT9=
PLAYORDER=
